PathFileType	4	(X/Y/Z)	RBDS012\RBDS012runT35.trc
DataRate	CameraRate	NumFrames	NumMarkers	Units	OrigDataRate	OrigDataStartFrame	OrigNumFrames
150.000000	150.000000	5	33	mm	150.000000	1687	4500
Frame#	Time	L.ASIS			L.Heel.Bottom			L.Heel.Lateral			L.Heel.Top			L.Iliac.Crest			L.MT1			L.MT5			L.PSIS			L.Shank.Bottom.Lateral			L.Shank.Bottom.Medial			L.Shank.Top.Lateral			L.Shank.Top.Medial			L.Thigh.Bottom.Lateral			L.Thigh.Bottom.Medial			L.Thigh.Top.Lateral			L.Thigh.Top.Medial			R.ASIS			R.ASY			R.Heel.Bottom			R.Heel.Lateral			R.Heel.Top			R.Iliac.Crest			R.MT1			R.MT5			R.PSIS			R.Shank.Bottom.Lateral			R.Shank.Bottom.Medial			R.Shank.Top.Lateral			R.Shank.Top.Medial			R.Thigh.Bottom.Lateral			R.Thigh.Bottom.Medial			R.Thigh.Top.Lateral			R.Thigh.Top.Medial			
		X1	Y1	Z1	X2	Y2	Z2	X3	Y3	Z3	X4	Y4	Z4	X5	Y5	Z5	X6	Y6	Z6	X7	Y7	Z7	X8	Y8	Z8	X9	Y9	Z9	X10	Y10	Z10	X11	Y11	Z11	X12	Y12	Z12	X13	Y13	Z13	X14	Y14	Z14	X15	Y15	Z15	X16	Y16	Z16	X17	Y17	Z17	X18	Y18	Z18	X19	Y19	Z19	X20	Y20	Z20	X21	Y21	Z21	X22	Y22	Z22	X23	Y23	Z23	X24	Y24	Z24	X25	Y25	Z25	X26	Y26	Z26	X27	Y27	Z27	X28	Y28	Z28	X29	Y29	Z29	X30	Y30	Z30	X31	Y31	Z31	X32	Y32	Z32	X33	Y33	Z33	

1688	11.24666666666667	2176.515851530164	989.3357996376625	860.9361173746926	1680.221537243159	104.8335688974594	981.2122191354517	1708.450835473763	102.8085287929134	931.9077623565056	1706.237047252463	147.301321134574	974.7808290572112	2139.037528139714	1063.832498506096	836.1124867192906	1888.604129187939	41.76073248169434	1011.205563804501	1855.918400190626	44.74573769047819	897.7005925928454	2023.509095293241	1059.460000625228	963.1340585770755	1816.451695046851	209.0486939812671	910.7054254600647	1779.842772677691	234.2276971051754	943.6131306161235	1847.661985632097	280.7819006743538	891.5594403666959	1812.69342026038	305.7488093863689	923.8812777248844	2050.63890527301	612.8307187911935	843.5093625831446	1985.591022642734	620.7867797627713	875.2575793330475	2050.488958672174	721.8741103327034	825.091868834897	1992.470915087561	730.0936185678562	860.114382170088	2195.355896125791	1005.533135748276	1132.955827002826	2063.417673733625	244.5131553055176	1054.747373706371	1892.156212129173	350.841238808384	1062.358660544109	1921.539972409938	344.9017563905418	1097.194763341302	1937.004784198121	374.9811902873352	1058.559909454157	2155.136415980716	1073.790039101171	1168.152763630586	2046.117551245225	193.0117061126577	1006.90172815754	2032.461536690353	208.996278851535	1124.438103406804	2026.638338515193	1056.14346771058	1068.683371694564	2058.541156395239	382.2681864484368	1111.748711672288	2038.770625424109	421.83621213891	1085.381512310842	2124.481461767107	431.3948848431513	1133.017284979877	2099.841430930416	470.6323666950675	1106.660266183485	2302.455014298988	649.5872899679568	1175.649912881639	2256.733208397139	620.4606869016413	1125.986087544127	2231.238120788308	731.1585424058738	1191.131133422582	2184.250963085605	701.6626733054159	1148.191463928027	
1689	11.25333333333333	2178.475204198488	993.7813893974098	860.3625400382466	1663.56820338455	117.5769954854378	979.9875310617992	1691.55169822601	113.2127379767751	930.7406539705116	1691.860143631872	158.3364885898524	972.9557383995013	2143.820438766982	1068.912892515779	837.0473732403112	1867.502472013002	43.12568116777682	1010.522788284663	1834.890108856181	46.08684884952383	897.2942784652942	2025.926171480221	1063.999567267935	962.7067541897261	1800.367797371676	217.3651967168713	908.8411585477014	1764.259201907486	241.976759429273	942.7615758194482	1831.260746558891	289.4597355453526	890.4370686754938	1796.724196097867	313.8538131584854	923.6589826392395	2039.565152095911	619.1399001652333	844.0327739265638	1974.967877976279	629.7430380997627	875.9129897308717	2043.742770072086	728.0462479587202	825.4910224213357	1986.163101916944	738.6400598129053	860.663289228666	2196.997701636554	1011.800555278133	1131.734448447825	2090.492539104199	232.5352529414541	1054.894028313024	1911.725770147941	326.3508827099639	1058.947271382079	1940.884565596305	322.8182604650439	1094.19634446548	1954.614714747499	353.6775682999138	1055.542461857031	2156.582927034813	1080.415557383168	1168.17410574417	2077.542579647994	179.4168731045731	1007.395136638419	2061.039882774796	195.5418952604825	1124.403758269264	2028.289753481413	1061.777629627256	1068.732057604267	2075.272533134158	370.1146284072563	1109.855934477147	2053.046996035584	407.9953119044774	1082.875554891771	2137.40015292529	424.0420504557914	1131.239504965504	2110.375651130619	461.2179019588003	1104.203949171443	2306.413632897412	657.6343892006519	1174.158706236537	2260.285782735793	627.7970976490728	1125.426230167841	2234.533664983715	738.4785368365627	1190.241449605865	2187.40395311251	708.4966633881987	1147.824559196754	
1690	11.26	2180.582122254682	998.2837501631532	859.9731740591226	1647.955760134555	131.1953727719408	978.6657030830131	1675.563471805311	124.5266759514635	929.4871524503072	1678.541436288926	170.0995850153973	971.0960168082925	2148.779320137621	1073.978938681923	838.0220597013534	1847.045457037642	45.11349046762317	1009.616333191441	1814.378242243208	48.17662945895503	896.6551281821511	2028.440991567525	1068.561197448091	962.2337301741474	1785.31306048126	226.0046581064328	906.9192875506134	1749.680978435473	250.0804017668616	941.7847302248935	1815.929345022345	298.4391683996895	889.2401019995663	1781.825306846841	322.2896084831135	923.3273497000584	2029.355882684689	625.7079476205711	844.5186307684523	1965.262027409313	638.8297290511022	876.4996498600412	2037.667175036006	734.3418919972301	825.8131073054955	1980.555579672539	747.186636629169	861.0819709370988	2198.765720926613	1017.998610256094	1130.522647263858	2118.109485467904	221.0704205406858	1055.178369292981	1932.801155651463	301.7817688732823	1055.505387161171	1961.503914216101	300.6911040397854	1091.183507337981	1973.50675659938	332.1661993155845	1052.448286144633	2158.052532708035	1086.996846587195	1168.248625079804	2109.694764194082	166.6441607120622	1008.138562027784	2090.211957778286	182.7577899636698	1124.53083718253	2030.118738628012	1067.32237089302	1068.735716569349	2092.473608209985	357.7554980203718	1107.960688539312	2067.996767926893	393.7704721673393	1080.29060214696	2150.452928278072	416.1970373878142	1129.427438938111	2121.241164245455	451.1573500564141	1101.637051941888	2309.701563003588	664.9602679926714	1172.568786546093	2262.882719283176	634.3615563190184	1125.129151576773	2237.436361845796	745.3450790700592	1189.194834839669	2190.0030326076	714.8973089457085	1147.532417951574	
1691	11.26666666666667	2182.783387229742	1002.749729053378	859.8083100474314	1633.255061080027	145.5741190389039	977.3566543571446	1660.345564930891	136.7085134415691	928.2408784137436	1666.082371267967	182.5223380683147	969.3093856316	2153.797515496705	1078.91056447423	839.0173403098131	1827.194761900473	47.87780061222924	1008.48292667345	1794.313172647123	51.22221937503492	895.7912459234657	2030.995035584234	1073.122218448962	961.7084443440874	1771.185909728117	234.9268545406103	905.0355382487664	1736.016569583188	258.5616127804921	940.7448101220834	1801.654313931292	307.6285880817111	888.0245918310624	1767.993043257752	331.0263046495675	922.9039681205337	2020.115387397909	632.3605581676726	844.9518394861861	1956.55428586385	647.8259059726358	877.0044076152172	2032.281953397185	740.6176458827149	826.0508772962431	1975.648926510381	755.548566217811	861.3675290930936	2200.620671560858	1024.038702699535	1129.385943306748	2146.174595753817	210.2347434320087	1055.584311065841	1955.371402462859	277.2910098723332	1052.125462895561	1983.396902227139	278.6480414761502	1088.232543108108	1993.6862174523	310.5887050516197	1049.364616682765	2159.527743294232	1093.403259065288	1168.365780412676	2142.472113147391	154.8564054624158	1009.100255497421	2119.913380620173	170.7353225844655	1124.81077636793	2032.099169105584	1072.709485450615	1068.674865459936	2110.121216905173	345.2701667084532	1106.109976062867	2083.619937776722	379.267643165817	1077.687084934963	2163.649841693216	407.8896957943149	1127.628154150809	2132.470758966458	440.5096475562269	1099.015209324049	2312.272460066699	671.4286228388755	1170.901891701791	2264.514736414784	640.0265931160342	1125.080016614753	2239.894963342767	751.6341724939915	1187.963454346972	2192.011627517317	720.7297958406142	1147.27398089579	
1692	11.27333333333333	2185.021589039912	1007.08873811936	859.887651923608	1619.295630944417	160.5981168028082	976.1905474861993	1645.719991797486	149.7114591286207	927.1123185438061	1654.247500061077	195.5407670289931	967.7167702191955	2158.755955677668	1083.606424300733	840.020323764045	1807.876899986891	51.56352836158715	1007.130930217352	1774.596823354421	55.42001629292498	894.7271331138631	2033.534784850703	1077.654548087738	961.1317737726012	1757.839959607686	244.1190242636886	903.2861919620292	1723.141876558726	267.4661133942785	939.720337618112	1788.378558609291	316.9622353365587	886.8505454996097	1755.189137130864	340.0557153107404	922.4222996282609	2011.941984722141	638.9180194421364	845.3170948079951	1948.914710712355	656.5081081803688	877.4091707641933	2027.607471745981	746.728718874889	826.2004833649764	1971.440171096094	763.5432937134824	861.517204740351	2202.524540424409	1029.827708165193	1128.382376938853	2174.576970757406	200.1528476773205	1056.092957571296	1979.403490137583	253.0495263026675	1048.89263940711	2006.545302293462	256.8270793041098	1085.41446074655	2015.129870325577	289.0993809829216	1046.378512134585	2161.00019848171	1099.505480261633	1168.518992352674	2175.74125423975	144.2269988085496	1010.236711274325	2150.068729871278	159.5758026557437	1125.227473571443	2034.201336073861	1077.87869929263	1068.538145598189	2128.178556490456	332.7527098955804	1104.348466477914	2099.892338284865	364.6094751744982	1075.128300474911	2176.98553859702	399.1719566362829	1125.893061491876	2144.076010703552	429.3553814589145	1096.403010166801	2314.05730415552	676.9043273633512	1169.186575501957	2265.170105286158	644.6883944141231	1125.231140962402	2241.835241750026	757.2144873104075	1186.532305440884	2193.380837371547	725.8697910520325	1146.994096529485	
